<svg width="24" height="20" viewBox="0 0 24 20" fill="none" xmlns="http://www.w3.org/2000/svg">
<path d="M18.7828 9.56522C17.5074 9.68116 16.464 10.1739 15.6524 11.0435C14.8408 11.913 14.435 13.0145 14.435 14.3478C14.435 15.7971 14.8697 16.9855 15.7393 17.913C16.6089 18.7826 17.7103 19.2174 19.0437 19.2174C20.5509 19.2174 21.7683 18.6667 22.6958 17.5652C23.5654 16.4638 24.0002 14.7536 24.0002 12.4348C24.0002 7.97101 22.5219 4.11594 19.5654 0.869564C18.9857 0.289855 18.319 0 17.5654 0C16.9277 0 16.377 0.231884 15.9132 0.695653C15.4495 1.10145 15.2176 1.5942 15.2176 2.17391C15.2176 2.81159 15.4495 3.36232 15.9132 3.82609C17.4205 5.3913 18.377 7.30435 18.7828 9.56522ZM4.34801 9.56522C3.07265 9.68116 2.02917 10.1739 1.21758 11.0435C0.405985 11.913 0.000185013 13.0145 0.000185013 14.3478C0.000185013 15.7971 0.434969 16.9855 1.30453 17.913C2.1741 18.7826 3.27555 19.2174 4.60888 19.2174C6.11613 19.2174 7.33352 18.6667 8.26105 17.5652C9.13062 16.4638 9.5654 14.7536 9.5654 12.4348C9.5654 7.97101 8.08714 4.11594 5.13062 0.869564C4.55091 0.289855 3.88424 0 3.13062 0C2.49294 0 1.94221 0.231884 1.47845 0.695653C1.01468 1.10145 0.782795 1.5942 0.782795 2.17391C0.782795 2.81159 1.01468 3.36232 1.47845 3.82609C2.98569 5.3913 3.94221 7.30435 4.34801 9.56522Z" fill="#C2C2C2"/>
</svg>
