<svg width="25" height="21" viewBox="0 0 25 21" fill="none" xmlns="http://www.w3.org/2000/svg">
<path d="M5.21756 10.6729C6.4946 10.7686 7.54577 11.2447 8.37107 12.1013C9.19637 12.9579 9.61961 14.0527 9.64078 15.3859C9.66379 16.835 9.24794 18.0302 8.39321 18.9714C7.53756 19.8546 6.44316 20.3069 5.10999 20.328C3.60293 20.352 2.37695 19.8206 1.43204 18.7341C0.545097 17.6466 0.0832134 15.9435 0.0463921 13.625C-0.0244889 9.16178 1.39237 5.28372 4.29697 1.99081C4.8674 1.40196 5.52938 1.10156 6.28291 1.08959C6.92051 1.07947 7.47485 1.30258 7.94592 1.75892C8.41607 2.1573 8.65575 2.64631 8.66496 3.22595C8.67509 3.86355 8.45198 4.41789 7.99563 4.88896C6.51343 6.47792 5.5874 8.40591 5.21756 10.6729ZM19.6505 10.4437C20.9276 10.5394 21.9787 11.0155 22.804 11.8721C23.6293 12.7287 24.0526 13.8235 24.0737 15.1567C24.0968 16.6058 23.6809 17.8009 22.8262 18.7422C21.9705 19.6254 20.8761 20.0776 19.543 20.0988C18.0359 20.1228 16.8099 19.5914 15.865 18.5049C14.9781 17.4174 14.5162 15.7143 14.4794 13.3958C14.4085 8.93257 15.8253 5.05451 18.7299 1.76159C19.3004 1.17275 19.9623 0.872348 20.7159 0.860381C21.3535 0.850255 21.9078 1.07337 22.3789 1.52971C22.849 1.92809 23.0887 2.4171 23.0979 2.99674C23.108 3.63434 22.8849 4.18868 22.4286 4.65975C20.9464 6.2487 20.0204 8.1767 19.6505 10.4437Z" fill="#C2C2C2"/>
</svg>
